HIERARCHY
ROOT hip
{
  OFFSET 21.8165 79.7006 224.303
  CHANNELS 6 Xposition Yposition Zposition Zrotation Xrotation Yrotation
  JOINT abdomen
  {
    OFFSET 0 20.6881 -0.73152
    CHANNELS 3 Zrotation Xrotation Yrotation
    JOINT chest
    {
      OFFSET 0 11.7043 -0.48768
      CHANNELS 3 Zrotation Xrotation Yrotation
      JOINT neck
      {
        OFFSET 0 22.1894 -2.19456
        CHANNELS 3 Zrotation Xrotation Yrotation
        JOINT head
        {
          OFFSET -0.24384 7.07133 1.2192
          CHANNELS 3 Zrotation Xrotation Yrotation
          JOINT leftEye
          {
            OFFSET 4.14528 8.04674 8.04672
            CHANNELS 3 Zrotation Xrotation Yrotation
            End Site
            {
              OFFSET 1 0 0
            }
          }
          JOINT rightEye
          {
            OFFSET -3.6576 8.04674 8.04672
            CHANNELS 3 Zrotation Xrotation Yrotation
            End Site
            {
              OFFSET 1 0 0
            }
          }
        }
      }
      JOINT rCollar
      {
        OFFSET -2.68224 19.2634 -4.8768
        CHANNELS 3 Zrotation Xrotation Yrotation
        JOINT rShldr
        {
          OFFSET -8.77824 -1.95073 1.46304
          CHANNELS 3 Zrotation Xrotation Yrotation
          JOINT rForeArm
          {
            OFFSET -28.1742 -1.7115 0.48768
            CHANNELS 3 Zrotation Xrotation Yrotation
            JOINT rHand
            {
              OFFSET -22.5879 0.773209 7.07136
              CHANNELS 3 Zrotation Xrotation Yrotation
              JOINT rThumb1
              {
                OFFSET -1.2192 -0.487915 3.41376
                CHANNELS 3 Zrotation Xrotation Yrotation
                JOINT rThumb2
                {
                  OFFSET -3.37035 -0.52449 3.41376
                  CHANNELS 3 Zrotation Xrotation Yrotation
                  End Site
                  {
                    OFFSET -1.78271 -1.18214 1.43049
                  }
                }
              }
              JOINT rIndex1
              {
                OFFSET -7.75947 0.938293 5.60832
                CHANNELS 3 Zrotation Xrotation Yrotation
                JOINT rIndex2
                {
                  OFFSET -2.54057 -0.884171 1.56538
                  CHANNELS 3 Zrotation Xrotation Yrotation
                  End Site
                  {
                    OFFSET -1.62519 -0.234802 1.16502
                  }
                }
              }
              JOINT rMid1
              {
                OFFSET -8.24714 1.18213 3.41376
                CHANNELS 3 Zrotation Xrotation Yrotation
                JOINT rMid2
                {
                  OFFSET -3.10165 -0.590103 1.0647
                  CHANNELS 3 Zrotation Xrotation Yrotation
                  End Site
                  {
                    OFFSET -2.48547 -0.328903 0.83742
                  }
                }
              }
              JOINT rRing1
              {
                OFFSET -8.82822 0.546677 1.51678
                CHANNELS 3 Zrotation Xrotation Yrotation
                JOINT rRing2
                {
                  OFFSET -2.60934 -0.819778 -0.0198488
                  CHANNELS 3 Zrotation Xrotation Yrotation
                  End Site
                  {
                    OFFSET -2.33842 -0.294052 0.168128
                  }
                }
              }
              JOINT rPinky1
              {
                OFFSET -8.27202 -0.0477905 -0.4584
                CHANNELS 3 Zrotation Xrotation Yrotation
                JOINT rPinky2
                {
                  OFFSET -1.82734 -0.647385 -0.700984
                  CHANNELS 3 Zrotation Xrotation Yrotation
                  End Site
                  {
                    OFFSET -1.69225 -0.51767 -0.607171
                  }
                }
              }
            }
          }
        }
      }
      JOINT lCollar
      {
        OFFSET 2.68224 19.2634 -4.8768
        CHANNELS 3 Zrotation Xrotation Yrotation
        JOINT lShldr
        {
          OFFSET 8.77824 -1.95073 1.46304
          CHANNELS 3 Zrotation Xrotation Yrotation
          JOINT lForeArm
          {
            OFFSET 28.1742 -1.7115 0.48768
            CHANNELS 3 Zrotation Xrotation Yrotation
            JOINT lHand
            {
              OFFSET 22.5879 0.773209 7.07136
              CHANNELS 3 Zrotation Xrotation Yrotation
              JOINT lThumb1
              {
                OFFSET 1.2192 -0.487915 3.41376
                CHANNELS 3 Zrotation Xrotation Yrotation
                JOINT lThumb2
                {
                  OFFSET 3.37035 -0.52449 3.41376
                  CHANNELS 3 Zrotation Xrotation Yrotation
                  End Site
                  {
                    OFFSET 1.78271 -1.18214 1.43049
                  }
                }
              }
              JOINT lIndex1
              {
                OFFSET 7.75947 0.938293 5.60832
                CHANNELS 3 Zrotation Xrotation Yrotation
                JOINT lIndex2
                {
                  OFFSET 2.54057 -0.884171 1.56538
                  CHANNELS 3 Zrotation Xrotation Yrotation
                  End Site
                  {
                    OFFSET 1.62519 -0.234802 1.16502
                  }
                }
              }
              JOINT lMid1
              {
                OFFSET 8.24714 1.18213 3.41376
                CHANNELS 3 Zrotation Xrotation Yrotation
                JOINT lMid2
                {
                  OFFSET 3.10165 -0.590103 1.0647
                  CHANNELS 3 Zrotation Xrotation Yrotation
                  End Site
                  {
                    OFFSET 2.48547 -0.328903 0.83742
                  }
                }
              }
              JOINT lRing1
              {
                OFFSET 8.82822 0.546677 1.51678
                CHANNELS 3 Zrotation Xrotation Yrotation
                JOINT lRing2
                {
                  OFFSET 2.60934 -0.819778 -0.0198488
                  CHANNELS 3 Zrotation Xrotation Yrotation
                  End Site
                  {
                    OFFSET 2.33842 -0.294052 0.168128
                  }
                }
              }
              JOINT lPinky1
              {
                OFFSET 8.27202 -0.0477905 -0.4584
                CHANNELS 3 Zrotation Xrotation Yrotation
                JOINT lPinky2
                {
                  OFFSET 1.82734 -0.647385 -0.700984
                  CHANNELS 3 Zrotation Xrotation Yrotation
                  End Site
                  {
                    OFFSET 1.69225 -0.51767 -0.607171
                  }
                }
              }
            }
          }
        }
      }
    }
  }
  JOINT rButtock
  {
    OFFSET -8.77824 4.35084 1.2192
    CHANNELS 3 Zrotation Xrotation Yrotation
    JOINT rThigh
    {
      OFFSET 0 -1.70687 -2.19456
      CHANNELS 3 Zrotation Xrotation Yrotation
      JOINT rShin
      {
        OFFSET 0 -36.8199 0.73152
        CHANNELS 3 Zrotation Xrotation Yrotation
        JOINT rFoot
        {
          OFFSET 0.73152 -45.1104 -5.12064
          CHANNELS 3 Zrotation Xrotation Yrotation
          End Site
          {
            OFFSET -1.1221 -3.69964 12.103
          }
        }
      }
    }
  }
  JOINT lButtock
  {
    OFFSET 8.77824 4.35084 1.2192
    CHANNELS 3 Zrotation Xrotation Yrotation
    JOINT lThigh
    {
      OFFSET 0 -1.70687 -2.19456
      CHANNELS 3 Zrotation Xrotation Yrotation
      JOINT lShin
      {
        OFFSET 0 -36.8199 0.73152
        CHANNELS 3 Zrotation Xrotation Yrotation
        JOINT lFoot
        {
          OFFSET -0.73152 -45.1104 -5.12064
          CHANNELS 3 Zrotation Xrotation Yrotation
          End Site
          {
            OFFSET 1.1221 -3.69964 12.103
          }
        }
      }
    }
  }
}
MOTION
Frames:	4
Frame Time:	0.00833333
32.0561 85.123 1.54549 -6.56565 2.22945 80.1921 -5.12482 12.8339 -13.1918 3.48311 -6.5224 -3.72422 -4.28112 0.426571 -10.5105 15.7366 19.3479 -20.9882 -0 0 0 -0 0 0 -8.54129e-014 6.34221e-014 -1.54552e-013 86.1982 46.9973 -19.9295 -22.5156 -16.5532 45.1988 -0.0499331 -6.35345 -0.896659 -4.95823e-010 9.69182e-010 -5.48614e-010 -8.51118e-010 1.66844e-009 -9.43004e-010 -4.9582e-010 9.69173e-010 -5.48625e-010 7.73091 5.47488 0.417314 -4.95824e-010 9.69181e-010 -5.48612e-010 2.90554 0.965183 0.102902 -4.95818e-010 9.69181e-010 -5.4861e-010 10.2786 0.731801 0.0259123 -4.9583e-010 9.69183e-010 -5.48599e-010 2.22167 -0.733487 -0.20892 -8.54761e-014 6.34226e-014 -1.54754e-013 -60.0077 51.0151 -16.7194 26.6046 -25.097 -59.4391 1.82747 -35.3753 5.72673 3.04737e-009 -2.04528e-009 2.75555e-009 5.17435e-009 -3.70313e-009 4.84401e-009 3.04736e-009 -2.04528e-009 2.75556e-009 -7.73091 5.47488 -0.417314 3.04737e-009 -2.04529e-009 2.75554e-009 -2.90554 0.965183 -0.102902 3.04736e-009 -2.04528e-009 2.75554e-009 -10.2786 0.731801 -0.0259123 3.04737e-009 -2.04527e-009 2.75554e-009 -2.22167 -0.733487 0.20892 -2.03217e-016 0 -3.88251e-019 -0.851322 -27.2029 7.5059 -0.39194 41.9005 0.695264 4.12812 -26.6277 7.10727 2.03217e-016 0 3.88251e-019 6.87054 -24.1834 -11.1253 0.275843 40.5522 -0.955264 1.42334 -27.8144 3.83567 
31.895 85.0744 2.94897 -6.58241 2.46161 80.4007 -5.3552 13.1686 -13.0231 3.58221 -6.51939 -3.67676 -4.40155 0.389462 -10.5926 15.9159 19.1422 -21.1207 -0 0 0 -0 0 0 -1.06469e-014 -1.68248e-013 -3.88072e-013 86.5795 47.1215 -19.9207 -22.322 -16.2495 44.6641 -0.0457797 -6.09267 -0.859549 -1.25898e-009 1.31164e-010 5.13145e-011 -2.17371e-009 2.21774e-010 9.03838e-011 -1.25897e-009 1.31164e-010 5.13004e-011 7.73091 5.47488 0.417314 -1.25898e-009 1.31164e-010 5.13196e-011 2.90554 0.965183 0.102902 -1.25897e-009 1.31164e-010 5.13175e-011 10.2786 0.731801 0.0259123 -1.25898e-009 1.31167e-010 5.13286e-011 2.22167 -0.733487 -0.20892 -1.07213e-014 -1.68248e-013 -3.88279e-013 -60.2368 50.7459 -16.2592 26.659 -25.2595 -59.6992 1.86283 -35.6602 5.78751 3.46641e-009 -2.65414e-009 3.3474e-009 5.88201e-009 -4.77883e-009 5.87843e-009 3.4664e-009 -2.65415e-009 3.34741e-009 -7.73091 5.47488 -0.417314 3.46641e-009 -2.65415e-009 3.34739e-009 -2.90554 0.965183 -0.102902 3.4664e-009 -2.65414e-009 3.34739e-009 -10.2786 0.731801 -0.0259123 3.46641e-009 -2.65414e-009 3.34738e-009 -2.22167 -0.733487 0.20892 -2.03217e-016 0 -3.88251e-019 -1.07363 -27.5703 7.23634 -0.401184 42.3541 0.711202 4.1238 -26.7433 7.05051 2.03217e-016 0 3.88251e-019 6.99877 -24.4185 -10.9094 0.282753 40.6561 -0.933416 0.591427 -26.8386 2.29242 
31.7317 85.0647 4.36309 -6.58405 2.67968 80.5563 -5.58121 13.5456 -12.8151 3.67163 -6.53321 -3.61865 -4.50712 0.342871 -10.6666 16.0998 18.9415 -21.2414 -0 0 0 -0 0 0 2.88425e-014 -2.56631e-013 -4.92887e-013 86.924 47.2654 -19.8755 -22.1353 -15.9619 44.1567 -0.0420716 -5.84406 -0.824218 -1.52629e-009 -3.40647e-010 3.94001e-010 -2.63808e-009 -5.91793e-010 6.80316e-010 -1.52629e-009 -3.40643e-010 3.93985e-010 7.73091 5.47488 0.417314 -1.5263e-009 -3.40647e-010 3.94007e-010 2.90554 0.965183 0.102902 -1.52629e-009 -3.40647e-010 3.94003e-010 10.2786 0.731801 0.0259123 -1.5263e-009 -3.40644e-010 3.94013e-010 2.22167 -0.733487 -0.20892 2.87573e-014 -2.56631e-013 -4.93085e-013 -60.4231 50.4996 -15.7985 26.7163 -25.4328 -59.9749 1.89461 -35.9123 5.8417 3.35466e-009 -2.68014e-009 3.30541e-009 5.69164e-009 -4.81813e-009 5.8034e-009 3.35465e-009 -2.68015e-009 3.30542e-009 -7.73091 5.47488 -0.417314 3.35466e-009 -2.68014e-009 3.30541e-009 -2.90554 0.965183 -0.102902 3.35466e-009 -2.68014e-009 3.30541e-009 -10.2786 0.731801 -0.0259123 3.35466e-009 -2.68014e-009 3.3054e-009 -2.22167 -0.733487 0.20892 -2.03217e-016 0 -3.88251e-019 -1.26784 -27.938 7.0417 -0.410622 42.8224 0.729051 4.10193 -26.8839 6.9509 2.03217e-016 0 3.88251e-019 7.11684 -24.6642 -10.7681 0.290978 40.855 -0.919007 -0.169752 -25.7181 0.805794 
31.5606 85.0339 5.77185 -6.56206 2.89329 80.6306 -5.82669 13.9725 -12.535 3.75282 -6.55798 -3.54157 -4.5937 0.273663 -10.7317 16.3062 18.7608 -21.3537 -0 0 0 -0 0 0 1.43554e-014 -1.19234e-013 -3.94139e-013 87.2418 47.4506 -19.7953 -21.9585 -15.6951 43.6784 -0.0390463 -5.62284 -0.792823 -1.0039e-009 -2.17003e-010 3.27394e-010 -1.7356e-009 -3.75634e-010 5.64477e-010 -1.0039e-009 -2.16999e-010 3.27377e-010 7.73091 5.47488 0.417314 -1.0039e-009 -2.17004e-010 3.27398e-010 2.90554 0.965183 0.102902 -1.0039e-009 -2.17004e-010 3.27395e-010 10.2786 0.731801 0.0259123 -1.00391e-009 -2.17001e-010 3.27404e-010 2.22167 -0.733487 -0.20892 1.42577e-014 -1.19237e-013 -3.94302e-013 -60.5427 50.2824 -15.3471 26.776 -25.6168 -60.268 1.92065 -36.1167 5.8859 2.37098e-009 -1.7652e-009 2.23559e-009 4.02569e-009 -3.18348e-009 3.92903e-009 2.37097e-009 -1.7652e-009 2.2356e-009 -7.73091 5.47488 -0.417314 2.37098e-009 -1.7652e-009 2.23559e-009 -2.90554 0.965183 -0.102902 2.37097e-009 -1.7652e-009 2.23559e-009 -10.2786 0.731801 -0.0259123 2.37098e-009 -1.76519e-009 2.23558e-009 -2.22167 -0.733487 0.20892 -2.03217e-016 0 -3.88251e-019 -1.41112 -28.284 6.97401 -0.419362 43.2757 0.749235 4.03286 -27.0797 6.74563 2.03217e-016 0 3.88251e-019 7.23632 -24.8949 -10.6813 0.300279 41.1363 -0.912871 -0.837442 -24.3596 -0.594345 
